<svg width="107" height="36" viewBox="0 0 107 36" fill="none" xmlns="http://www.w3.org/2000/svg">
<path d="M0.677741 16.6438C0.296105 16.6438 0.00987816 16.4393 0.00987816 15.9895C0.00987816 13.6043 0.00987816 8.45223 0.00987816 0.560533C0.00987816 -0.0528108 0.527815 0.00170373 1.05938 0.00170373C2.58593 0.00170373 3.41735 0.00170373 3.56728 0.00170373C4.54863 -0.0119261 5.29827 0.0562232 5.84346 0.206152C7.39727 0.655937 8.54218 1.69181 9.2373 3.31377C9.40086 3.68178 9.48264 4.07704 9.48264 4.47231C9.48264 5.75352 9.48264 9.01105 9.48264 14.2586C9.48264 15.7033 8.37862 16.6165 7.002 16.6165C5.24375 16.6165 3.13112 16.6165 0.691372 16.6438H0.677741Z" fill="white"/>
<path d="M24.9662 7.41636C24.9662 7.42999 24.9662 7.45725 24.9389 7.45725C19.0236 7.44362 15.9432 7.42999 15.7115 7.41636C15.03 7.3891 13.7488 7.40273 11.8679 7.44362C11.0637 7.45725 11.1319 6.91206 11.1455 6.24419C11.1591 4.25423 11.1864 2.34605 11.2409 0.533274C11.2409 0.192527 11.4317 0.0153408 11.7725 0.0153408C12.9991 0.0153408 14.4439 0.0153408 16.1476 0.0153408C17.0336 0.0153408 17.7696 0.0698603 18.3693 0.219789C21.804 1.01032 24.5982 3.85896 24.9934 7.41636H24.9662Z" fill="white"/>
<path d="M35.5566 22.9408C35.0523 23.6359 34.4934 24.1266 33.8528 24.4128C31.5085 25.4623 28.8371 24.9853 27.4059 22.6682C26.9016 21.8368 26.8062 21.0735 26.7926 19.9695C26.7653 17.0663 26.7653 14.0132 26.7926 10.8102C26.7926 9.03832 26.7108 6.6122 26.7926 5.08565C26.8744 3.24562 27.6649 1.501 29.3277 0.628685C32.1764 -0.8706 35.5021 0.519648 36.2653 3.72267C36.3199 3.95438 36.3471 4.2406 36.3471 4.60861C36.3471 10.4695 36.3471 15.6215 36.3744 20.0785C36.3744 20.9099 36.2108 21.7005 35.8701 22.4501C35.8564 22.4774 35.8428 22.5183 35.8155 22.5455C35.7338 22.6546 35.6656 22.7636 35.6247 22.8726C35.6247 22.8999 35.6111 22.9135 35.5975 22.9408H35.5566Z" fill="white"/>
<path d="M66.033 0.369713C71.1033 0.369713 73.7338 0.369713 73.8974 0.369713C76.4734 0.369713 78.477 2.23701 78.5997 4.78579C78.6678 6.13515 78.0954 7.30732 76.896 8.3023C76.3235 8.77934 75.6965 9.0792 75.015 9.2155C74.797 9.25639 74.0882 9.28365 72.9024 9.28365C70.3536 9.28365 68.0638 9.28365 66.033 9.28365H59.1635C57.9777 9.28365 57.269 9.27002 57.0509 9.2155C56.3694 9.0792 55.7424 8.77934 55.17 8.3023C53.9705 7.30732 53.4117 6.12152 53.4662 4.78579C53.5889 2.23701 55.5789 0.369713 58.1685 0.369713C58.3321 0.369713 60.9627 0.369713 66.033 0.369713Z" fill="white"/>
<path d="M77.741 16.9573C77.8501 14.2313 78.5724 11.6961 79.9218 9.36543C82.198 5.44002 85.4964 2.79583 89.8035 1.43284C91.221 0.983055 92.6657 0.751354 94.1378 0.724094C94.1786 0.724094 94.2059 0.751354 94.2059 0.792244V9.95151C94.2059 10.006 94.165 10.0606 94.0969 10.0606C91.7525 10.3604 89.8852 11.4644 88.5086 13.3726C87.7317 14.4494 87.2547 15.6488 87.1047 16.9845C87.1047 17.0254 87.0639 17.0527 87.023 17.0527C86.7231 17.0527 86.4369 17.1345 86.1234 17.1345C83.2747 17.1345 81.3393 17.1345 80.2898 17.1345C79.2539 17.1345 78.4225 17.1072 77.7955 17.0254C77.7547 17.0254 77.7274 16.9845 77.7274 16.9436L77.741 16.9573Z" fill="white"/>
<path d="M95.6779 0.77861C95.6779 0.737721 95.7188 0.696835 95.7597 0.696835C96.7547 0.805874 97.6679 0.83313 98.6901 1.05121C100.966 1.52825 103.188 2.4142 105.096 3.76356C105.451 4.02252 105.764 4.26786 106.009 4.5132C106.65 5.14017 107.318 5.7944 106.827 6.68034C106.759 6.80301 106.473 7.14376 105.955 7.70258C104.755 9.02468 103.692 10.156 102.752 11.11C102.493 11.3826 102.275 11.6007 101.92 11.6416C101.021 11.7643 100.258 11.7234 99.4943 11.2463C98.3494 10.5512 96.9864 10.0878 95.7052 10.0197C95.6779 10.0197 95.6643 9.9924 95.6643 9.96515V0.751349L95.6779 0.77861Z" fill="white"/>
<path d="M23.317 13.4953C22.8535 13.9451 22.5673 14.2177 22.4719 14.3131C20.7273 15.8396 18.6964 16.6165 16.393 16.6301C13.9941 16.6438 12.5494 16.6574 12.0723 16.671C11.6634 16.671 11.3908 16.5347 11.2545 16.2349C11.2136 16.1531 11.2 16.0713 11.2 15.9895L11.1319 9.01105C11.1319 8.97016 11.1727 8.92927 11.2136 8.92927H24.7754C24.8435 8.92927 24.9117 8.98379 24.9117 9.05194C24.9253 10.3059 24.6118 11.4644 23.9576 12.5412C23.7395 12.8956 23.5487 13.1818 23.3715 13.3999C23.3578 13.4135 23.3442 13.4408 23.3442 13.468V13.4953C23.3442 13.4953 23.3442 13.4953 23.3442 13.5089L23.317 13.4953Z" fill="white"/>
<path d="M55.2654 24.8217C55.2381 24.8217 55.2108 24.7944 55.2108 24.7672C55.2108 24.7672 55.2108 24.7536 55.2108 24.7399C57.8414 20.6237 60.5401 16.453 63.307 12.2141C63.7431 11.5462 64.3292 11.1918 65.1061 11.0964C65.3651 11.0692 65.7195 10.9874 66.0193 10.9874C69.3586 10.9874 72.807 10.9874 76.3644 10.9601C76.378 10.9601 76.4053 10.9738 76.4053 11.001C76.4053 11.001 76.4053 11.0146 76.4053 11.0283C74.1155 14.5584 73.1069 16.1667 70.8988 19.4652C70.1355 20.5964 69.2632 21.9594 68.2546 23.5541C67.7094 24.4128 66.9462 24.8353 65.9376 24.8217C63.048 24.8081 59.4906 24.8081 55.2654 24.8217Z" fill="white"/>
<path d="M0.029141 18.7046L0.000975334 34.8424C0.000436673 35.151 0.250191 35.4016 0.55882 35.4022L8.8594 35.4167C9.16803 35.4172 9.41866 35.1674 9.4192 34.8588L9.44736 18.7211C9.4479 18.4124 9.19815 18.1618 8.88952 18.1613L0.588937 18.1468C0.280307 18.1462 0.0296797 18.396 0.029141 18.7046Z" fill="white"/>
<path d="M11.1864 30.9006C11.2273 27.7249 11.2273 23.6904 11.2136 18.8246C11.2136 18.402 11.4453 18.184 11.9224 18.1703C13.0809 18.1703 14.3758 18.1567 15.8205 18.1567C17.0745 18.1567 18.0422 18.184 19.1053 18.552C21.2316 19.3016 23.317 20.8145 24.2847 22.8863C24.5573 23.4587 24.7754 24.0857 24.9525 24.7672C24.9525 24.8081 24.9525 24.8353 24.898 24.849C24.898 24.849 24.898 24.849 24.8844 24.849C23.7804 24.849 22.69 24.849 21.5996 24.9035C19.8004 24.9853 18.0831 25.4078 16.4475 26.1983C15.2753 26.7708 14.2531 27.5204 13.3944 28.4609C12.2768 29.6739 11.8406 30.1237 11.2682 30.9279C11.2545 30.9551 11.2273 30.9551 11.2 30.9415C11.1864 30.9415 11.1727 30.9143 11.1727 30.9006H11.1864Z" fill="white"/>
<path d="M89.3673 23.4451C90.6349 24.7127 92.325 25.5441 94.1105 25.7213C94.1786 25.7213 94.2195 25.7758 94.2195 25.8439V35.085C94.2195 35.1395 94.1786 35.194 94.1241 35.194C89.8307 34.9487 85.7554 33.1632 82.7023 30.1101C79.6628 27.057 77.8909 22.968 77.6592 18.6746C77.6592 18.6201 77.7001 18.5656 77.7547 18.5656L86.9957 18.5929C87.0639 18.5929 87.1047 18.6337 87.1184 18.7019C87.2819 20.4874 88.1133 22.1775 89.3673 23.4451Z" fill="white"/>
<path d="M95.6507 25.7485C95.6507 25.7213 95.6779 25.694 95.7052 25.694C96.7683 25.7758 97.7224 25.4896 98.622 25.0398C99.3171 24.699 99.8214 24.4128 100.421 24.2901C101.621 24.0584 102.752 24.59 103.611 25.5305C103.829 25.7758 104.183 26.1029 104.66 26.5254C105.614 27.3705 106.35 28.2701 106.895 29.3877C107.154 29.9056 106.895 30.2328 106.527 30.6825C105.437 31.9638 103.924 32.8633 102.357 33.5584C100.653 34.3217 98.8537 34.8397 96.9592 35.1123C96.5503 35.1668 96.1277 35.194 95.6916 35.1804C95.6643 35.1804 95.6507 35.1531 95.6507 35.1259V25.7213V25.7485Z" fill="white"/>
<path d="M50.6585 34.0764C49.4999 35.2622 48.1097 35.4257 46.3514 35.4121C40.0272 35.3985 35.2431 35.3985 31.9992 35.4121C31.6039 35.4121 31.1405 35.3303 30.6089 35.1804C28.9188 34.6761 27.624 33.3676 27.0515 31.7048C26.8335 31.0778 26.7381 30.3282 26.7381 29.4559C26.7381 28.5154 26.7381 27.7521 26.7517 27.166C26.7517 26.6345 26.9834 26.4164 27.5013 26.43C29.5594 26.4437 36.0336 26.4437 46.9239 26.43C47.5918 26.43 48.0961 26.4573 48.4368 26.5254C52.0487 27.2342 53.18 31.4867 50.6585 34.0764Z" fill="white"/>
<path d="M76.5825 34.5398C75.6965 35.1259 74.6879 35.4121 73.5703 35.3985C65.2833 35.3712 60.5401 35.3712 59.368 35.3712C58.6319 35.3712 57.9232 35.3985 57.119 35.3167C55.0609 35.1122 53.4117 33.0269 53.3708 31.0505C53.3299 29.3059 54.0114 27.9838 55.4153 27.0706C56.3149 26.4845 57.4053 26.3755 58.5774 26.3619C63.675 26.3482 68.6635 26.4164 74.279 26.4164C74.429 26.4164 74.7288 26.4573 75.1786 26.5527C76.9914 26.9343 78.2317 28.5426 78.5316 30.2873C78.8041 31.882 77.9046 33.6402 76.5825 34.5125V34.5398Z" fill="white"/>
<path d="M23.3033 31.8411C23.3033 31.882 23.2761 31.9229 23.2624 31.9365C22.7854 32.5226 22.2811 33.0132 21.7495 33.4221C21.7086 33.4494 21.6541 33.4767 21.6132 33.4903C21.5314 33.5039 21.4633 33.5721 21.4088 33.6675C21.3951 33.6947 21.3679 33.7356 21.3406 33.7493C20.1548 34.5671 18.8191 35.085 17.3471 35.2894C16.8155 35.3712 15.875 35.4121 15.2072 35.4121C14.0895 35.4121 12.9174 35.4121 11.6634 35.4121C11.5953 35.4121 11.5407 35.3576 11.5407 35.2894C11.5407 35.2894 11.5407 35.2894 11.5407 35.2758C11.7725 33.5584 12.5085 32.0592 13.5307 30.6689C13.926 30.1373 14.4167 29.633 15.0027 29.1287C16.5838 27.793 18.4375 26.948 20.5501 26.5936C21.068 26.5118 21.7904 26.4709 22.7036 26.4982C23.0716 26.4982 23.8076 26.4845 24.9253 26.43C24.9798 26.43 25.0343 26.4709 25.0343 26.5254C25.157 28.4609 24.6118 30.2055 23.3987 31.7457C23.3987 31.7457 23.3851 31.7593 23.3578 31.7729C23.3306 31.7729 23.3033 31.8138 23.3033 31.8411Z" fill="white"/>
</svg>
